<?xml version="1.0" encoding="UTF-8"?>
<svg width="1200" height="540" version="1.1" xmlns="http://www.w3.org/2000/svg"><!-- Generator: Sketch 54 (76480) - https://sketchapp.com -->
 <title>FW-Logo</title>
 <desc>Created with Sketch.</desc>
 <g id="Design-Desktop" transform="matrix(12.375 0 0 12.375 21.105 22.49)" style="fill-rule:evenodd;fill:none">
  <g id="B-Element-Graphic-Logo-Fairwear">
   <polygon id="Path" points="49.956 0 93.555 0 85.921 22.368 58.34 22.368 52.783 40 0 40 7.0499 17.632 44.398 17.632" style="fill:#fff"/>
   <path d="m62.065 12.747 3.2124-5.6774-.76206 5.6774zm-13.466 12.793-.56628 1.6176c-.33106.93504-.95198 1.1966-1.7403 1.1966h-1.2655l1.3915-4.0101h1.2652c.78835 0 1.2462.26123.91546 1.196zm33.93-17.845-.56599 1.6179c-.33106.93445-.95198 1.1963-1.7403 1.1963h-1.2655l1.3912-4.0101h1.2655c.78835 0 1.2462.26152.91517 1.196zm-48.296 22.897 3.2124-5.6771-.76206 5.6771zm48.158-26.083h-2.9872c-.49762 0-.84066.20571-.99552.67264l-4.0493 11.608c-.18438.52333.06311.80355.62326.80355h.72582c.49791 0 .84066-.20542.99581-.67293l1.5916-4.5419h1.286c.17941.30272.15574 1.3494.206 1.8607.14084 1.4338.33311 3.3971 2.3551 3.3971h.76994l-.0018.0061c.29366 0 .60281-.22529.68696-.50024l.27876-.91137c.08445-.27525-.08678-.50024-.38044-.50024l.0018-.0061h-.77024c-.89822 0-.64372-2.7373-.8801-3.6449 1.16-.39272 1.9656-1.1779 2.4133-2.4673l.8164-2.3367c.69894-1.9814-.69397-2.7662-2.6862-2.7662zm-11.703 12.411 4.049-11.608c.18438-.52333-.062823-.80355-.62297-.80355h-.72641c-.49732 0-.84066.20571-.99552.67264l-4.049 11.608c-.18467.52333.06282.80355.62297.80355h.72611c.49791 0 .84066-.20542.99582-.67293zm-3.9447-12.411h-1.3149c-.47716 0-.82692.20571-1.0671.59813l-6.8442 11.627c-.30272.50463-.09993.85936.50141.85936h.66417c.47716 0 .82722-.20542 1.0502-.61654l1.2848-2.2996h3.2078l-.30009 2.1684c-.06019.50492.18058.74774.71998.74774h.72612c.5394 0 .85848-.24282.91896-.74774l1.2144-11.589c.05581-.46723-.24311-.74745-.76147-.74745zm-9.9023 7.4955c.49791 0 .84066-.20571.99552-.67323l.14931-.42982c.18438-.52304-.06282-.80355-.62297-.80355h-2.9077l1.2448-3.599h3.9684c.49791 0 .84066-.206.99582-.67323l.17649-.5131c.18408-.52333-.062823-.80355-.62297-.80355h-5.4624c-.49732 0-.84066.20571-.99552.67264l-4.049 11.608c-.18438.52333.06282.80355.62297.80355h.72612c.49791 0 .84095-.20542.99552-.67293l1.7327-4.9157zm-8.3806 10.349h-2.9874c-.49732 0-.84066.20571-.99552.67293l-4.049 11.608c-.18467.52333.06312.80384.62297.80384h.72612c.49762 0 .84066-.20571.99552-.67264l1.5919-4.5422h1.2857c.17941.30301.15603 1.3497.206 1.8607.14084 1.4338.3334 3.3974 2.3551 3.3974h.77024l-.0018.0058c.29366 0 .60251-.22499.68667-.50024l.27876-.91166c.08415-.27496-.08678-.50024-.38044-.50024l.0018-.0056h-.77024c-.89793 0-.64372-2.7376-.8801-3.6455 1.16-.39242 1.9659-1.1779 2.4136-2.4673l.81611-2.3364c.69894-1.9817-.69397-2.7665-2.6859-2.7665zm-9.5488 0h-1.3149c-.47716 0-.82692.20571-1.0671.59813l-6.8442 11.627c-.30272.50463-.09993.85936.50141.85936h.66417c.47716 0 .82722-.20542 1.0502-.61654l1.2848-2.2993h3.2075l-.2998 2.1684c-.06019.50463.18058.74744.71998.74744h.72612c.5394 0 .85848-.24282.91896-.74744l1.2147-11.589c.05552-.46752-.2434-.74774-.76176-.74774zm-10.113 5.4954h-2.6988l1.2103-3.5052h3.4868c.49791 0 .84095-.206.99552-.67323l.17707-.51339c.18408-.52333-.06311-.80355-.62326-.80355h-4.9808c-.49762 0-.84066.20571-.99552.67293l-4.0493 11.608c-.18408.52333.06311.80355.62297.80355h4.4993c.49762 0 .84066-.20542.99523-.67235l.17678-.5131c.18408-.52333-.06282-.80413-.62297-.80413h-2.8598l1.2734-3.6092h2.8437c.49791 0 .84066-.20571.99611-.67323l.1762-.51281c.18438-.52333-.06311-.80384-.62297-.80384zm-12.107 6.8521 5.8741-11.247.13237-.26356c.26473-.50434.05406-.88098-.54758-.88098h-.60135c-.47745 0-.83394.21827-1.0215.62969l-3.8868 7.5238.48943-6.3422c.01344-.47248-.30243-.81231-.78163-.84036-.48184-.03039-1.0125.26152-1.3184.71735l-4.1668 6.4228 1.4896-7.1855c.01841-.07568.06019-.30535.06107-.3708.0044-.35502-.24282-.55489-.69865-.55489h-.64284c-.4757-.005-.86666.28022-.93854.74744l-.08269.4193-1.9875 11.088c-.092043.51544.19168.92569.68608.99289.047044.0064.094965.0096.14347.0096.45904 0 .95929-.28197 1.2532-.71939l4.4958-6.4994-.13792 6.3761c-.01403.49645.33428.84241.84562.84241h.01198c.51807-.0056 1.0665-.36262 1.3295-.8652zm76.863-34.701-7.634 22.368h-27.581l-5.5573 17.632h-52.783l7.0499-22.368h37.349l5.5576-17.632z" style="fill:#ed003b"/>
  </g>
 </g>
</svg>